<?xml version="1.0" encoding="utf-8"?>
<!-- Generator: Adobe Illustrator 26.2.1, SVG Export Plug-In . SVG Version: 6.00 Build 0)  -->
<svg version="1.1" id="Layer_1" xmlns="http://www.w3.org/2000/svg" xmlns:xlink="http://www.w3.org/1999/xlink" x="0px" y="0px"
	 viewBox="0 0 64 64" style="enable-background:new 0 0 64 64;" xml:space="preserve">
<style type="text/css">
	.st0{fill:#FF0000;}
</style>
<g>
	<g>
		<g>
			<path class="st0" d="M5.19,32.5c1.12-3.86,3.74-7.12,7.36-8.9c3.73-1.84,7.53-1.65,11.51-0.98c4.66,0.78,9.25,2,13.92,2.7
				c4.5,0.68,9.1,0.9,13.64,0.36c4.39-0.52,8.68-1.87,12.11-4.75c0.39-0.32-1.61-0.45-1.75-0.45c-0.71-0.03-2.46-0.26-3.08,0.26
				c-3.08,2.59-6.92,4.05-10.91,4.43c-4.2,0.4-8.51-0.66-12.59-1.51c-4.51-0.95-9.01-1.95-13.62-2.23
				c-4.36-0.26-9.02-0.13-13.12,1.56c-4.13,1.7-7.24,5.24-8.48,9.52C0.16,32.59,4.92,33.41,5.19,32.5L5.19,32.5z"/>
		</g>
	</g>
	<g>
		<g>
			<path class="st0" d="M3.72,40.46c4,6.95,12.5,9.38,20.06,9.16c8.56-0.25,17.14-2.92,24.55-7.15c0.85-0.48,0.92-1.18,0-1.65
				c-0.93-0.48-2.61-0.53-3.54,0c-9.97,5.69-28.9,11.8-36.25-0.98C7.74,38.45,2.87,38.99,3.72,40.46L3.72,40.46z"/>
		</g>
	</g>
	<g>
		<g>
			<path class="st0" d="M14.29,27.35c-1,3.94-2.05,8.25-0.4,12.17c1.44,3.43,4.76,5.31,8.3,5.91c1.14,0.19,2.39,0.22,3.54,0
				c0.15-0.03,0.73-0.1,0.73-0.32c0-0.22-0.65-0.3-0.73-0.32c-3.32-0.56-6.11-2.88-7.14-6.1c-1.19-3.74-0.22-7.67,0.71-11.35
				c0.1-0.41-2.28-0.45-2.5-0.45C16.39,26.9,14.43,26.79,14.29,27.35L14.29,27.35z"/>
		</g>
	</g>
	<g>
		<g>
			<path class="st0" d="M36.66,28.86c0.24,0.2,0.45,0.41,0.66,0.64c-0.03-0.03-0.06-0.07-0.09-0.1c1.79,2.04,2.27,5.09,1.1,7.55
				c-0.12,0.25,2.32,0.38,2.5,0.38c0.59,0,1.19-0.01,1.77-0.11c0.21-0.04,0.63-0.05,0.73-0.27c1.33-2.81,0.5-6.3-1.85-8.29
				c-0.22-0.18-0.92-0.21-1.15-0.23c-0.63-0.06-1.29-0.07-1.93-0.04c-0.49,0.03-1.02,0.04-1.49,0.18
				C36.77,28.61,36.45,28.68,36.66,28.86L36.66,28.86z"/>
		</g>
	</g>
	<g>
		<g>
			<path class="st0" d="M24.59,29.48c-1.24,0.61-2.22,1.63-2.69,2.94c-0.39,1.1-0.4,2.43,0.09,3.5c0.6,1.3,1.58,2.25,2.84,2.91
				c0.57,0.3,1.22,0.52,1.86,0.61c0.89,0.13,1.83,0.18,2.7-0.07c1.07-0.3,1.95-0.81,2.68-1.65c0.46-0.53,0.79-1.23,0.99-1.9
				c0.35-1.17-0.63-2.2-1.75-2.4c-0.63-0.11-1.34-0.1-1.93,0.2c-0.48,0.25-0.99,0.62-1.15,1.16c-0.08,0.29-0.19,0.56-0.33,0.83
				c0.08-0.16,0.17-0.31,0.25-0.47c-0.14,0.26-0.31,0.5-0.51,0.72c0.13-0.13,0.26-0.26,0.39-0.39c-0.14,0.14-0.29,0.26-0.45,0.37
				c0.17-0.1,0.34-0.2,0.51-0.3c-0.15,0.09-0.31,0.17-0.48,0.23c0.2-0.07,0.4-0.13,0.6-0.2c-0.21,0.07-0.41,0.11-0.62,0.14
				c0.22-0.02,0.44-0.05,0.66-0.07c-0.25,0.02-0.5,0.02-0.75,0c0.22,0.02,0.44,0.05,0.66,0.07c-0.28-0.03-0.55-0.09-0.82-0.18
				c0.2,0.07,0.4,0.13,0.6,0.2c-0.26-0.09-0.51-0.21-0.75-0.35c0.17,0.1,0.34,0.2,0.51,0.3c-0.29-0.18-0.55-0.38-0.8-0.62
				c0.13,0.13,0.26,0.26,0.39,0.39c-0.26-0.26-0.47-0.55-0.65-0.88c0.08,0.16,0.17,0.31,0.25,0.47c-0.15-0.3-0.26-0.61-0.32-0.94
				c0.03,0.17,0.06,0.35,0.09,0.52c-0.06-0.38-0.06-0.76,0.01-1.14c-0.03,0.17-0.06,0.35-0.09,0.52c0.07-0.35,0.18-0.68,0.34-1
				c-0.08,0.16-0.17,0.31-0.25,0.47c0.15-0.28,0.34-0.54,0.57-0.77c-0.13,0.13-0.26,0.26-0.39,0.39c0.17-0.16,0.35-0.31,0.55-0.43
				c-0.17,0.1-0.34,0.2-0.51,0.3c0.08-0.04,0.15-0.09,0.23-0.12c0.49-0.24,0.96-0.63,1.15-1.16c0.17-0.48,0.07-1.1-0.25-1.5
				C27.23,29.23,25.69,28.94,24.59,29.48L24.59,29.48z"/>
		</g>
	</g>
	<g>
		<g>
			<path class="st0" d="M24.09,20.57c3.75-1.05,7.3-2.76,10.42-5.09c0.22-0.17-0.78-0.25-0.83-0.26c-0.38-0.02-1.13-0.1-1.47,0.15
				c-3.04,2.24-6.43,3.96-10.06,5.01c-0.45,0.13,0.31,0.26,0.4,0.27C23.05,20.69,23.61,20.7,24.09,20.57L24.09,20.57z"/>
		</g>
	</g>
	<g>
		<g>
			<path class="st0" d="M32.74,22.14c0.4,2.77,4.54,1.4,6.25,0.9c2.28-0.67,4.47-1.55,6.54-2.7c4.2-2.34,7.86-5.51,10.68-9.4
				c1.63-2.24-2.86-3.72-4.15-1.82c-2.09,3.07-4.69,5.67-7.75,7.77c-1.45,1-2.99,1.83-4.59,2.55c-0.87,0.39-1.76,0.75-2.67,1.06
				c-0.38,0.13-0.75,0.24-1.13,0.35c-0.19,0.06-0.39,0.11-0.58,0.17c-0.15,0.04-0.29,0.08-0.44,0.12c-0.45,0.1-0.19,0.19,0.77,0.27
				c0.15,0.19,0.29,0.38,0.44,0.56c-0.02-0.06-0.04-0.11-0.06-0.17c-0.26-0.71-1.16-0.98-1.84-0.91
				C33.63,20.96,32.63,21.38,32.74,22.14L32.74,22.14z"/>
		</g>
	</g>
	<g>
		<g>
			<path class="st0" d="M51.9,24.41c0.56-0.39,1.13-0.78,1.69-1.18c0.35-0.24,0.68-0.47,0.99-0.77c0.23-0.22,0.47-0.45,0.7-0.67
				c0.05-0.08,0.09-0.15,0.14-0.23c0.06-0.13,0.06-0.25,0.02-0.38c-0.04-0.22-0.18-0.42-0.37-0.54c-0.18-0.12-0.39-0.2-0.6-0.24
				c-0.3-0.07-0.76-0.04-1.05,0.1c-0.33,0.16-0.66,0.32-0.98,0.48c-0.4,0.19-0.75,0.43-1.11,0.68c-0.57,0.38-1.15,0.77-1.72,1.15
				c-0.26,0.17-0.47,0.48-0.47,0.8c0,0.32,0.22,0.63,0.47,0.8C50.26,24.84,51.24,24.87,51.9,24.41L51.9,24.41z"/>
		</g>
	</g>
	<g>
		<g>
			<path class="st0" d="M23.31,54.27c5.23-0.78,10.53-0.57,15.71,0.49c0.54,0.11,1.65,0.03,1.92-0.57c0.29-0.65-0.67-0.91-1.09-1
				c-5.69-1.24-11.59-1.33-17.34-0.43c-0.45,0.07-1.3,0.35-1.05,0.96C21.69,54.31,22.82,54.34,23.31,54.27L23.31,54.27z"/>
		</g>
	</g>
</g>
</svg>
